
<svg version="1.1" id="Layer_1" xmlns="http://www.w3.org/2000/svg" xmlns:xlink="http://www.w3.org/1999/xlink" x="0px" y="0px"
	 viewBox="0 0 1080 1679.81" style="enable-background:new 0 0 1080 1679.81;" xml:space="preserve">
<path d="M948.18,655.02c-13.74-57.97-92.72-32.37-80.25,21.24c3.71,32.06,30.58,24.83,16.49,42.06
	c2.22,15.13-12.92,32.11-7.21,44.97c1.67,27.08-0.24,53.74,0.12,81.89c-0.96,25.23,7.38,55.16-13.85,11.37
	c-14.64-24.53-35.99-46.26-53.07-69.2c-25.22-16.41-47.12-40.71-76.47-52.46c-10.4-11.25-86.78-31.74-70.1-36.79
	c109.91-58.62,160.66-176.11,147.08-298c-16.76-83.23-64.78-174.66-141.79-215.76c-40.48-18.29-69.97-36.88-113.46-37.71
	c-148.15-8.05-274.52,97.51-297.72,253.25c-12.4,58.14,7.62,121.26,24.49,175.35c37.73,69.26,70.08,95.83,132.16,135.19
	c-83.9,29.98-175.3,110.61-210.55,195.79c-8.99,24.66-0.89-60.92-5.04-73.93c-20.77-39.5,8.07-102.02,3.87-105.73
	c-1.13-5.53,11.91-10.98,13.02-18.2c35.46-67.78-65.76-120.17-88.79-42.21c-13.27,32.3,20.12,51.84,22.56,69.22
	c-13.13,17.07-3.6,35.04,2.93,51.55c-3.76,55.26-5.11,109.59,0.96,165.59c2.8,36.97-5.7,75.51-0.01,113.59
	c0.2,55.61,4.99,110.24,2.9,165.66c6.35,22.03,11.16,46.13,7.54,71.99c7.43,17.43-0.18,40.19,4.13,59.18
	c-0.23,9.7-2.89,43.97,2.49,49.82c0.63,4.61,6.3,5.53,8.77,9.88c2.81,3.73,9.91,40.4,10.18,48.17c-3.63,14.84-5.55,31.65,6.18,41.97
	c11.89,1.5,97.57,2.82,127.15-2.77c89-6.61,188.21,12.03,281.98,0.16c22.44-5.69,41.28,4.21,64.26,2.92
	c45.57-2.8,93.78-4.81,138.28-8c27.19,4.8,57.32,0.34,84.63,3.11c38.74,1.75,33.83-0.79,34.55-37.13
	c4.66-43.57-14.56-147.29,10.26-181.81c13.69-14.38-7.03-9.07-0.64-31.78c5.65-15.38-4.45-31.67-7.27-46.81
	c-4.47-26.66,7.17-51.91,7.3-78.95c-1.65-68.92-6.32-136.94-1.08-207.23c2.07-53.07-0.41-107.21,5.42-161.01
	c0.87-17.55-8.48-30.47-22.08-42.49C929.29,698.91,959.31,691.52,948.18,655.02z M764.73,420.7
	c9.65,76.01-19.84,145.43-68.47,197.15c-23.39,25.87-61.61,49.9-97.67,56.82c-14.26,0.45-31.04,16.87-52.13,8.89
	c-13.16-15.94,1.26-41.23,10.15-57.22c6.88-5.67,14.93-12.49,23.55-19.35c3.32-2.38,10.3-17.91,12.37-16.63
	c8.21-13.19,24.47-7.69,37.15-10.49c13.79-5.04,19.64-6.21,31.07-12.32c19.39-25.7,50.11-12.72,74.5-32.85
	c32-29.02,19.3-68.32-9.26-94.31c1.94-6.28,12.52-5.42,18.03-10.63C749.07,427.6,762.28,411.38,764.73,420.7z M536.71,558.48
	c-22.69,11.82-33.45,38.66-19.53,58.56c-3.89,8.86-7.7,20.94-13.54,30.43c-2.78,8.79-11.15,13.95-18.9,17.4
	c-6.31,3.71-9.16,7.87-13.57,8.49c-8.11,1.13-21.75-2.3-26.43-9.88c0.06-10.25,13.09-14.62,19.45-22.4
	c23.88-29.2,41.86-69.68,72.54-97.33C548.65,526.24,569.37,536.54,536.71,558.48z M514.1,657.64c0.96-4.45,20.98-37.51,21.91-42.59
	C543.7,618.77,537.45,644.55,514.1,657.64z M493.31,387.43c21.49,2.92,45.72,0.63,66.71-0.66c20.67,7.1,41.29-9.85,61.17-3.91
	c-3.87,12.03-76.33,23.45-124.19,25.76c-19.81,0.95-36.1-2.94-40.46-3.79c-30.03-3.26-63.57-9.79-87.12-29.74
	c3.86-4.31,32.69,2.54,38.54,4.71C415.74,382.69,467.24,387.71,493.31,387.43z M430.21,432.46c21.2-7.27,45.87,7.66,67.36,6.34
	c31.84,8.05,69.49-21.23,97.89-2.6c-40.92,22.66-93.49,23.75-138.05,11.18C445.46,456.7,402.24,415.73,430.21,432.46z
	 M761.45,402.41c-14.01,13.69-32.43,19.57-37.98,24.37c-9.3,2.3,3.4-11.05,15.37-14.02C746.56,410.86,757.35,401.81,761.45,402.41z
	 M405.38,246.73c85.62-63.69,215.55-52.08,291.08,26.8c17.31,17.05,91.94,114.58,46.31,125.45c-20.35,12.67-50.17,6.64-71.88,15.85
	c-13.39,9.08-19.03,25.72-6.35,40.49c41.9,22.08,16.38,30.94-11.21,3.68c-27.37-10.65-23.7-29.07-2.86-42.9
	c19.96-12.5,23.73-39.24,19.98-66.51c-5.59-28.91-32.25-39.33-57.16-45.59c-53.72-10.41-105.93-4.78-157.05-23.77
	C448.58,279.85,391.02,257.18,405.38,246.73z M368.59,310.78c18.63,12.64,39.63,4.13,58.89,11.7
	c55.62,21.85,126.4,3.37,188.24,13.22c-3.1,22.21-50.91,6.28-69.08,12.6c-26.29,5.96-67.89-0.59-94.24,2.14
	c-28.79-3.2-37.6-10.91-63.19-22.75C382.69,326.43,350.9,304.1,368.59,310.78z M391.19,557.28c-59.29,7.79-70.04-24.88-75.35-78.75
	c-1.34-20.68-9.68-60.5,2.2-87.74c4.82,9.01,7.83,18.65,17.19,24.87c6.77,5.72,15.7,13.93,24.48,14.5
	c63.64,10-10.76,27.1,56.15,56.72c12.55,19.09,97.95-4.7,58.15,20.1c-10.84,10.72-24.98,15.28-35.48,24.52
	C430.57,539.06,401.57,554.4,391.19,557.28z M415.4,617.71c-7.2,7.55-29.76-0.18-40.75-2.67c8.82-4.61,40.79-13.94,44.21-18.46
	c7.68-8.29,61.21-43.65,76.67-53.43c22.78-1.08-12.7,18.72-17.51,27.07C463.54,595.36,441.47,607.28,415.4,617.71z M368.89,804.63
	c92.84-76.67,245.94-81.67,342.74-8.38c46.08,30.3,92.14,79.92,115.47,135.98c8.31,15.81,27.16,26.38,22.36,45.02
	c-61.35-3.66-77.76,165.57-123.19,132.68c-0.35-28.79-16.18-52.16-41.64-62.63c-28.9-16.08-70,0.24-98.62,12.94
	c-32.52,25.91-42.64,13.33-21.73-22.12c9.48-19.44,17.24-38.6,33.47-52.64c25.39-22.4,132.33-115.33,48.59-122.94
	c-50.76,11.91-13.25,72.25,0.16,23.98c5.73,0.27,7.14-9.43,12.57-2.67c0.22,18.47-32.45,34.23-46.05,51.75
	c-13.76,11.9-6.57-5.69-6.15-14.33c-2.31-15.84-3.4-38.07,6.79-52.7c23.64-24.49,23.01-55.68-8.33-67.13
	c-17.55-2.8-29.57,11.17-47.11,6.79C501.28,765.31,418.56,793.64,368.89,804.63z M842.22,1041.62c-6.33,6.53-30.1,34.19-37.75,32.09
	c5.7-8.07,2.62-16.7,5.51-26.32C816.68,1019.69,857.31,1000.94,842.22,1041.62z M726.32,1205.78
	c-34.62,77.48-100.25,141.04-184.97,133.19c-13.27-22.76,18.4-34.1,30.99-53.43c33.6,15,52.95,1.7,75.85-15.73
	c26.16-21.52,58.83-68.55,69.49-102.78c4.76-10.81,16.2-21.1,27.46-24.79C764.4,1152.14,729.86,1189.05,726.32,1205.78z
	 M672.04,1206.75c-11.38,19.06-29.27,35.91-44.46,52.92c-12,14.19-58.2,19.44-30.09-5.18C607,1252.97,682.68,1171.76,672.04,1206.75
	z M469.35,1049.69c-6.96-24.8-30.35-34.71-49.58-48.81c-7-14.76,16.07-13.33,25.15-17.7c10.41-3.04,18.67-9.15,26.67-10.35
	c32.52-16.3,63.54-32.75,92.19-57.93c12.19-15.33,23.38,2.03,14.67,16.83c-5.31,11.66-14.03,25-9.37,38.18
	c0.13,21.33-21.99,32.83-32.86,48.61c-11.16,13.28-22.08,20.35-33.01,30.77C490.55,1060.82,473.1,1073.7,469.35,1049.69z
	 M447.34,1068.54c-15.59,22.16-55.79-22.15-36.96-38.95C429.1,1027.31,449.91,1054.52,447.34,1068.54z M445.26,945.41
	c29.23-41.4,64.91-69.8,102.51-99.57c12.71-11.24,36.23,12.44,27.01,30.38c-13.7,12.24-29.51,22.82-43.31,33.81
	C521.92,914.56,430.25,979.36,445.26,945.41z M587.06,832.41c10.34-15.01,29.71,8.02,12.44,14.26
	C589.61,846.59,587.02,835.98,587.06,832.41z M306.48,921.08c16.09-87.26,125.84-119.45,201.5-108.82
	c58.67,7.49-37.47,41.4-48.83,56.48c-35.18,26.59-60.92,58.28-79.34,98.49C351.55,984.17,304.23,957.02,306.48,921.08z
	 M246.04,1066.92c-3.85-21.25-1.93-50.05,6.98-73.96c5.11-13.7,11.01-27.72,18.91-41.82c17.42-56.18-7.46,22.79,74.63,45.71
	c-5.13,10.79-27.42,15.1-40.19,21.79C283.25,1030.68,261.95,1048.7,246.04,1066.92z M298.06,1237.17
	c-28.66-3.41-30.6-40.4-39.11-59.19c-28.62-76.17,52.92-141.5,105.87-152.05c13.54,5.64,8.54,21.99,15.57,32.98
	c12.06,27.05,33.99,35.88,60.71,44.94c13.87,43.47-148.6,117.66-91.69,23.6c-1.41-8.29,23-13.54,15.74,0.38
	c-5.86,7.39-4.25,24.24,9.02,17.34c4.52-3.82,12.75-17.45,15.11-18.77c2.74-2.67,4.35-25.36-4.53-26.56
	c-44.99-32.61-89.24,48.42-58.73,85.16c34.29,26.14,87.98-0.25,110.68-26.02c15.35-12.08,22.8-34.03,34.49-53.78
	c14.24-27.66,57.73-39.17,22.05,2.82C457.61,1174.16,380.9,1264.24,298.06,1237.17z M493.94,1352.21
	c-19.29,56.85,14.96,50.01-28.73,46.96c-17.7,6.22-38.78-2.68-46.12-21.53c-35.77-19.67-68.46-42.33-92.13-76.59
	c-12.8-10.5-16.63-24.27-28.24-35.01c6.12-3.37,12.77,3.43,17.4-0.13c26.45,2.75,52.54-2.8,78.4-9.03
	C499.98,1204.99,403.58,1252.35,493.94,1352.21z M511.44,1319.2c-36.52-9.45-23.26-69.33-18.7-97.07
	c21.36-60.76,71.47-131.03,137.14-150.59c51.26-15.03,85.88,17.18,69.77,68.85c-14.96,16.45-40.76,33.41-62.19,49.73
	c-22.14,20.07-45.12,39.35-65.77,61.5c-3.23-3.94-29.16-68.4,5.43-78.91c7.62-2.56,14.44,17.12,7.1,20.3
	c-4.83,1.15-11.8-3.71-12.41,5.04c-8.1,27.2,26.88,17.14,33.59,0.71c5.08-118.49-116.46-9.33-50.4,62.63
	C560.53,1264.92,523.48,1304.64,511.44,1319.2z M858.38,1079.61c3.11,72.72-21.19,148.26-64.54,204.29
	c-5.73,6.77-22.56,30.46-24,33.1c-22.48,24.42-49.66,42.22-78.21,61.43c-33.72,17.13-67.38,26.97-103.22,36.83
	c-16.59,7.79-34.56-6.99-47.11-6.53c-33.3,10.09-35.65-43.41-14.24-48.56c11.01,1.58,23.44,4.34,34.18,2.94
	c91.96,0.9,197.27-70.63,218.59-170.15c10.91-29.96,12.05-54.09,20.77-81.89C808.55,1095.64,865.52,1046.26,858.38,1079.61z"/>
</svg>